<?xml version="1.0" encoding="UTF-8" standalone="no"?>
<!-- Generator: Adobe Illustrator 18.0.0, SVG Export Plug-In . SVG Version: 6.00 Build 0)  -->

<svg
   xmlns:dc="http://purl.org/dc/elements/1.1/"
   xmlns:cc="http://creativecommons.org/ns#"
   xmlns:rdf="http://www.w3.org/1999/02/22-rdf-syntax-ns#"
   xmlns:svg="http://www.w3.org/2000/svg"
   xmlns="http://www.w3.org/2000/svg"
   xmlns:sodipodi="http://sodipodi.sourceforge.net/DTD/sodipodi-0.dtd"
   xmlns:inkscape="http://www.inkscape.org/namespaces/inkscape"
   version="1.1"
   x="0px"
   y="0px"
   viewBox="0 0 48 48"
   style="enable-background:new 0 0 48 48;"
   xml:space="preserve"
   id="svg2"
   inkscape:version="0.91 r13725"
   sodipodi:docname="github2.svg"><metadata
     id="metadata193"><rdf:RDF><cc:Work
         rdf:about=""><dc:format>image/svg+xml</dc:format><dc:type
           rdf:resource="http://purl.org/dc/dcmitype/StillImage" /><dc:title></dc:title></cc:Work></rdf:RDF></metadata><defs
     id="defs191" /><sodipodi:namedview
     pagecolor="#ffffff"
     bordercolor="#666666"
     borderopacity="1"
     objecttolerance="10"
     gridtolerance="10"
     guidetolerance="10"
     inkscape:pageopacity="0"
     inkscape:pageshadow="2"
     inkscape:window-width="1920"
     inkscape:window-height="1039"
     id="namedview189"
     showgrid="false"
     inkscape:zoom="4.9166667"
     inkscape:cx="-16.067797"
     inkscape:cy="24"
     inkscape:window-x="0"
     inkscape:window-y="0"
     inkscape:window-maximized="1"
     inkscape:current-layer="svg2" /><g
     id="g4" /><g
     id="g6" /><g
     id="g8" /><g
     id="g10" /><g
     id="g12" /><g
     id="g14" /><g
     id="g16" /><g
     id="g18" /><g
     id="g20" /><g
     id="g22" /><g
     id="g24" /><g
     id="g26" /><g
     id="g28" /><g
     id="g30" /><g
     id="g32" /><g
     id="g34" /><g
     id="g36" /><g
     id="g38" /><g
     id="g40" /><g
     id="g42" /><g
     id="g44" /><g
     id="g46" /><g
     id="g48" /><g
     id="g50" /><g
     id="g52" /><g
     id="g54" /><g
     id="g56" /><g
     id="g58" /><g
     id="g60" /><g
     id="g62" /><g
     id="g64" /><g
     id="g66" /><g
     id="g68" /><g
     id="g70" /><g
     id="g72" /><g
     id="g74" /><g
     id="g76" /><g
     id="g78" /><g
     id="g80" /><g
     id="g82" /><g
     id="g84" /><g
     id="g86" /><g
     id="g88" /><g
     id="g90" /><g
     id="g92" /><g
     id="g94" /><g
     id="g96" /><g
     id="g98" /><g
     id="g100" /><g
     id="g102" /><g
     id="g104" /><g
     id="g106" /><g
     id="g108" /><g
     id="g110" /><g
     id="g112" /><g
     id="g114" /><g
     id="g116" /><g
     id="g118" /><g
     id="g120" /><g
     id="g122" /><g
     id="g124" /><g
     id="g126" /><g
     id="g128" /><g
     id="g130" /><g
     id="g132" /><g
     id="g134" /><g
     id="g136" /><g
     id="g138" /><g
     id="g140" /><g
     id="g142" /><g
     id="g144" /><g
     id="g146" /><g
     id="g148" /><g
     id="g150" /><g
     id="g152" /><g
     id="g154" /><g
     id="g156" /><g
     id="g158" /><g
     id="g160" /><g
     id="g162" /><g
     id="g164" /><g
     id="g166" /><g
     id="g168"><g
       id="g170"><circle
         style="fill:#595959;"
         cx="24"
         cy="24"
         r="24"
         id="circle172" /><path
         id="path9-5_4_"
         style="fill:#FFFFFF;"
         d="M13.365,23.737c-0.047,0,0.514,1.206,0.529,1.206c1.224,2.22,3.582,3.6,7.56,3.981    c-0.568,0.431-1.25,1.25-1.345,2.194c-0.714,0.461-2.15,0.614-3.265,0.262c-1.564-0.494-2.163-3.588-4.505-3.147    c-0.507,0.095-0.406,0.43,0.032,0.714c0.714,0.461,1.386,1.039,1.903,2.269c0.399,0.943,1.235,2.631,3.881,2.631    c1.049,0,1.785-0.127,1.785-0.127s0.02,2.41,0.02,3.347c0,1.081-1.46,1.386-1.46,1.905c0,0.205,0.484,0.225,0.871,0.225    c0.767,0,2.363-0.64,2.363-1.763c0-0.892,0.015-3.892,0.015-4.417c0-1.147,0.615-1.511,0.615-1.511s0.076,6.125-0.147,6.946    c-0.262,0.965-0.735,0.828-0.735,1.259c0,0.641,1.921,0.156,2.558-1.25c0.492-1.094,0.277-7.103,0.277-7.103l0.525-0.011    c0,0,0.03,2.75,0.011,4.008c-0.018,1.302-0.107,2.949,0.667,3.725c0.508,0.51,2.156,1.407,2.156,0.588    c0-0.476-0.903-0.866-0.903-2.153V31.59c0.721,0,0.613,1.947,0.613,1.947l0.052,3.621c0,0-0.159,1.319,1.428,1.87    c0.56,0.197,1.756,0.248,1.813-0.079c0.057-0.329-1.442-0.819-1.456-1.841c-0.009-0.622,0.028-0.986,0.028-3.693    c0-2.708-0.364-3.708-1.632-4.505c3.911-0.401,6.333-1.369,7.512-3.959c0.092,0.002,0.481-1.21,0.43-1.21    c0.264-0.978,0.409-2.135,0.435-3.504c-0.007-3.715-1.785-5.029-2.126-5.645c0.504-2.813-0.085-4.092-0.357-4.531    c-1.008-0.358-3.506,0.922-4.872,1.823c-2.224-0.65-6.928-0.588-8.692,0.168c-3.255-2.329-4.977-1.972-4.977-1.972    s-1.113,1.993-0.294,4.91c-1.071,1.364-1.869,2.329-1.869,4.887C12.813,21.321,12.983,22.611,13.365,23.737L13.365,23.737z" /></g></g><g
     id="g175" /><g
     id="g177" /><g
     id="g179" /><g
     id="g181" /><g
     id="g183" /><g
     id="g185" /><g
     id="g187" /><path
     style="fill:#4078c0;fill-opacity:1;stroke:#4078c0;stroke-width:0.01688136;stroke-miterlimit:4;stroke-dasharray:none;stroke-opacity:1"
     d="M 20.338983,47.608137 C 9.4966367,45.907867 1.1535419,36.970338 0.2223014,26.058171 -0.74185344,14.760315 6.4751221,4.2059496 17.312028,1.0655371 31.779043,-3.126839 46.484022,6.9657797 47.7755,21.973843 49.097302,37.334282 35.548361,49.993235 20.338983,47.608137 Z m 2.78363,-8.018353 c 1.068199,-0.651328 1.16626,-1.023338 1.249165,-4.738937 0.04181,-1.873728 0.158315,-3.406779 0.258899,-3.406779 0.100654,0 0.182882,1.46774 0.182882,3.264337 0,3.642318 0.142556,4.185303 1.281061,4.879489 0.776834,0.473665 1.566397,0.523251 1.566397,0.09838 0,-0.165094 -0.182709,-0.599839 -0.406019,-0.966102 -0.359406,-0.589481 -0.406106,-1.026693 -0.40678,-3.808306 -10e-4,-3.980139 0.346076,-3.854426 0.439709,0.159281 l 0.068,2.915215 0.664227,0.59326 c 0.545505,0.487226 0.845414,0.593261 1.677966,0.593261 0.560268,0 1.013739,-0.09376 1.013739,-0.209603 0,-0.115281 -0.320339,-0.490865 -0.711864,-0.834629 l -0.711864,-0.625025 -0.0089,-3.080625 c -0.0092,-3.16868 -0.202611,-4.235232 -0.90982,-5.016688 -0.331778,-0.36661 -0.321307,-0.38918 0.234899,-0.50644 3.151896,-0.664483 4.201585,-1.065139 5.185188,-1.979128 1.507466,-1.400778 2.202504,-3.480254 2.207518,-6.604639 0.0034,-2.103839 -0.399521,-3.497826 -1.416858,-4.902221 -0.552546,-0.762765 -0.585897,-0.913686 -0.487912,-2.207833 0.06773,-0.894513 0.0048,-1.714976 -0.176852,-2.304355 -0.280314,-0.9096947 -0.287333,-0.9150066 -1.155537,-0.87447 -0.547216,0.02555 -1.496908,0.349601 -2.542387,0.867506 l -1.668877,0.826721 -1.613267,-0.229092 c -1.712,-0.243113 -4.96472,-0.123904 -6.224966,0.228137 -0.670574,0.187321 -0.845855,0.146241 -1.707456,-0.40017 -1.553956,-0.98549 -3.768274,-1.5969839 -4.143917,-1.144362 -0.410244,0.494314 -0.691631,2.789487 -0.469612,3.830463 0.189556,0.888768 0.163524,0.990931 -0.484883,1.90293 -0.891532,1.253958 -1.088916,2.024819 -1.087362,4.246574 0.0035,5.033815 2.201885,7.685703 7.171005,8.650379 l 1.174554,0.228021 -0.513537,0.610303 c -0.282443,0.335667 -0.513535,0.788598 -0.513535,1.006513 0,0.556837 -0.886343,0.844611 -2.298039,0.74612 -1.174326,-0.08193 -1.185692,-0.089 -2.644068,-1.64494 -1.380767,-1.473136 -1.514191,-1.56265 -2.329079,-1.562577 -1.099046,10e-5 -1.122555,0.334715 -0.08225,1.170726 0.469882,0.377608 1.051503,1.170208 1.456796,1.98524 0.95084,1.912112 1.750617,2.413765 4.000139,2.509053 l 1.693113,0.07172 0,1.734775 c 0,1.719124 -0.0064,1.74083 -0.711864,2.406149 -0.391525,0.369256 -0.711864,0.758371 -0.711864,0.864702 0,0.58191 1.817261,0.340484 2.67864,-0.355861 0.447199,-0.36152 0.479631,-0.54979 0.575597,-3.341158 0.07284,-2.118657 0.180156,-3.032952 0.378195,-3.221996 0.232806,-0.222236 0.254835,0.266365 0.139408,3.091987 -0.116555,2.85325 -0.196054,3.438478 -0.530736,3.907019 -0.216506,0.303097 -0.393647,0.646318 -0.393647,0.762712 0,0.349822 1.073976,0.237339 1.766681,-0.185032 z"
     id="path4321"
     inkscape:connector-curvature="0" /></svg>